Coordinates
version=1
nRows=43
nColumns=12
inDegrees=yes

Units are S.I. units (second, meters, Newtons, ...)
Angles are in degrees

endheader
time	SC_y	SC_z	SC_x	AC_y	AC_z	AC_x	GH_y	GH_z	GH_yy	EL_x	PS_y
       0.0              -24.89          5.581          30.92          57.43         -2.229         -13.89         -49.29          72.89          112.4          101.8          81.04
   0.03824              -24.89          5.586          30.92          57.43         -2.229         -13.89         -49.31          72.88          112.4          101.8          81.04
   0.07648               -24.9          5.591          30.92          57.43         -2.229         -13.88         -49.33          72.88          112.4          101.8          81.03
    0.1147               -24.9          5.597          30.93          57.43         -2.229         -13.88         -49.35          72.87          112.4          101.8          81.03
     0.153               -24.9          5.602          30.93          57.43         -2.229         -13.87         -49.37          72.87          112.3          101.8          81.02
    0.1912              -24.91          5.609          30.93          57.43         -2.229         -13.87         -49.39          72.86          112.3          101.8          81.02
    0.2294              -24.91          5.615          30.94          57.42         -2.228         -13.86         -49.42          72.85          112.3          101.8          81.01
    0.2677              -24.92          5.622          30.94          57.42         -2.228         -13.86         -49.45          72.85          112.2          101.8           81.0
    0.3059              -24.93           5.63          30.94          57.42         -2.228         -13.85         -49.47          72.84          112.2          101.8           81.0
    0.3442              -24.93          5.638          30.95          57.42         -2.228         -13.85          -49.5          72.83          112.2          101.8          80.99
    0.3824              -24.94          5.646          30.95          57.42         -2.228         -13.84         -49.54          72.82          112.1          101.8          80.98
    0.4206              -24.95          5.656          30.96          57.42         -2.228         -13.83         -49.57          72.81          112.1          101.8          80.97
    0.4589              -24.95          5.666          30.96          57.42         -2.228         -13.83         -49.61           72.8          112.0          101.8          80.96
    0.4971              -24.96          5.677          30.97          57.42         -2.228         -13.82         -49.65          72.79          112.0          101.8          80.95
    0.5353              -24.97          5.689          30.97          57.42         -2.228         -13.81         -49.69          72.78          111.9          101.8          80.94
    0.5736              -24.98          5.701          30.98          57.42         -2.228          -13.8         -49.74          72.76          111.9          101.8          80.93
    0.6118              -24.99          5.715          30.99          57.42         -2.228         -13.79         -49.79          72.75          111.8          101.9          80.92
    0.6501               -25.0           5.73           31.0          57.42         -2.228         -13.78         -49.85          72.73          111.7          101.9           80.9
    0.6883              -25.02          5.747           31.0          57.42         -2.228         -13.77         -49.91          72.71          111.7          101.9          80.89
    0.7265              -25.03          5.765          31.01          57.42         -2.227         -13.75         -49.98          72.69          111.6          101.9          80.87
    0.7648              -25.05          5.785          31.02          57.41         -2.227         -13.74         -50.05          72.67          111.5          101.9          80.85
     0.803              -25.06          5.807          31.03          57.41         -2.227         -13.72         -50.13          72.65          111.4          101.9          80.83
    0.8413              -25.08          5.831          31.05          57.41         -2.227         -13.71         -50.22          72.62          111.3          101.9          80.81
    0.8795               -25.1          5.857          31.06          57.41         -2.227         -13.69         -50.32           72.6          111.2          102.0          80.79
    0.9177              -25.12          5.887          31.08          57.41         -2.227         -13.66         -50.43          72.56          111.0          102.0          80.76
     0.956              -25.15           5.92          31.09          57.41         -2.226         -13.64         -50.56          72.53          110.9          102.0          80.73
    0.9942              -25.18          5.958          31.11           57.4         -2.226         -13.61          -50.7          72.49          110.7          102.0          80.69
     1.032              -25.21          5.999          31.13           57.4         -2.226         -13.58         -50.85          72.45          110.5          102.0          80.65
     1.071              -25.25          6.047          31.16           57.4         -2.226         -13.55         -51.03           72.4          110.3          102.1          80.61
     1.109              -25.29            6.1          31.19          57.39         -2.225         -13.51         -51.23          72.34          110.1          102.1          80.56
     1.147              -25.34          6.161          31.22          57.39         -2.225         -13.46         -51.46          72.27          109.8          102.2           80.5
     1.185              -25.39          6.232          31.25          57.38         -2.224         -13.41         -51.72           72.2          109.5          102.2          80.44
     1.224              -25.45          6.313           31.3          57.38         -2.224         -13.35         -52.02          72.11          109.1          102.2          80.36
     1.262              -25.53          6.407          31.35          57.37         -2.223         -13.28         -52.37          72.01          108.7          102.3          80.28
       1.3              -25.61          6.517           31.4          57.37         -2.222          -13.2         -52.78           71.9          108.2          102.4          80.18
     1.338              -25.71          6.647          31.47          57.36         -2.222          -13.1         -53.27          71.76          107.6          102.5          80.06
     1.377              -25.83          6.802          31.55          57.35         -2.221         -12.99         -53.84          71.59          106.9          102.6          79.91
     1.415              -25.98          6.987          31.65          57.34         -2.219         -12.85         -54.53           71.4          106.0          102.7          79.74
     1.453              -26.15          7.211          31.76          57.32         -2.218         -12.69         -55.37          71.16          105.0          102.8          79.53
     1.491              -26.36          7.484           31.9           57.3         -2.216         -12.49         -56.39          70.87          103.7          103.0          79.28
      1.53              -26.62          7.822          32.08          57.28         -2.214         -12.24         -57.65          70.51          102.2          103.2          78.97
     1.568              -26.95          8.243           32.3          57.25         -2.211         -11.93         -59.22          70.06          100.3          103.5          78.58
     1.606              -27.36          8.774          32.57          57.22         -2.207         -11.53         -61.19           69.5          97.87          103.9          78.09
